<svg id="Capa_1" data-name="Capa 1" xmlns="http://www.w3.org/2000/svg" viewBox="0 0 664.2 677"><defs><style>.cls-1{fill:#eb5a9c;}.cls-2,.cls-4,.cls-5{isolation:isolate;fill:#1d1d1b;font-family:ArialMT, Arial;}.cls-2{font-size:39px;}.cls-3{fill:#e7408f;}.cls-4{font-size:38px;}.cls-5{font-size:32px;}</style></defs><ellipse class="cls-1" cx="340.2" cy="349.7" rx="20" ry="19.5"/><path class="cls-1" d="M313.8,0l4.8,45.9L340.4,52l21.9-6L367.2.1Zm42.9,14.9H331.1l.6,5.7h24.4l-1.9,17.2L340.5,41h-.2l-13.7-3.2-.8-8.8h6.6l.5,4.4,7.4,1.7,7.5-1.7.8-7.2H325.4L323.6,9.3h33.5Z" transform="translate(0.1 0)"/><path class="cls-1" d="M489.9,51.9l4.8,45.9,21.8,6.1,21.9-6L543.3,52Zm43.5,9.3-.7,5.5-16.1,5.7h15.5l-1.8,17-13.7,3.3-13.7-3.4-.9-8.6h6.8l.4,4.4,7.3,1.6,7.6-1.8.5-7.1-23.1-.1h0l-.5-5.4,15.6-5.4.9-.3H500.4l-.8-5.5Z" transform="translate(0.1 0)"/><path class="cls-1" d="M628.5,196.1A15.25,15.25,0,0,0,638,193a10.11,10.11,0,0,0,4-7.5,9.68,9.68,0,0,0-3.9-7.5,15.25,15.25,0,0,0-9.5-3.1H601.7a15.25,15.25,0,0,0-9.5,3.1,10.11,10.11,0,0,0-4,7.5,9.68,9.68,0,0,0,3.9,7.5,15.25,15.25,0,0,0,9.5,3.1,15.25,15.25,0,0,0-9.5,3.1,10.11,10.11,0,0,0-4,7.5,9.68,9.68,0,0,0,3.9,7.5,15.25,15.25,0,0,0,9.5,3.1,15.68,15.68,0,0,0-7.5,1.8,12.65,12.65,0,0,0-5,4.7,8.69,8.69,0,0,0-.8,6.1,9.83,9.83,0,0,0,3.7,5.4,14.76,14.76,0,0,0,6.9,2.9,17.17,17.17,0,0,0,7.8-.6,12.12,12.12,0,0,0,6-3.9,9,9,0,0,0,2.3-5.9l.1-31.7Zm0,0a15.68,15.68,0,0,0-7.5,1.8,12.65,12.65,0,0,0-5,4.7,8.69,8.69,0,0,0-.8,6.1,9.83,9.83,0,0,0,3.7,5.4,14.76,14.76,0,0,0,6.9,2.9,17.17,17.17,0,0,0,7.8-.6,12.84,12.84,0,0,0,6-3.9,9,9,0,0,0,2.3-5.9,9.68,9.68,0,0,0-3.9-7.5A15.82,15.82,0,0,0,628.5,196.1Z" transform="translate(0.1 0)"/><path class="cls-1" d="M25.7,438.8C25.6,438.9,25.7,438.9,25.7,438.8Zm20.8-9.4a8.5,8.5,0,0,0-4.8,1.5,15.8,15.8,0,0,1-1.1-3.3,12,12,0,0,1-.1-2.7,21.62,21.62,0,0,1,.6-2.9c0-.1-.1-.7-1.2-.7s-2,.3-2.1.6a15.52,15.52,0,0,0-.4,2.1c-.2,1.3-2.2,5.8-3.3,8.2a6.36,6.36,0,0,1-.7-2.4,12,12,0,0,1-.1-2.7,21.62,21.62,0,0,1,.6-2.9c0-.1-.1-.7-1.2-.7s-2,.3-2.1.6-.2,1.2-.4,2.1-2.8,8.4-3.5,10.3c-.4,1-.7,1.8-.9,2.3,0,.1-.1.1-.1.2v-.1c-.2.5-.3.7-.3.7h0c-.1.3-.3.7-.4.7a4.4,4.4,0,0,1,0-2.2c.4-2.6,1.3-6.7,1.3-6.8a1,1,0,0,0-.6-1.2c-.8-.4-1,.2-1.1.2s-.1.2-.1.2.9-4.6-1.6-4.6c-1.5,0-3.7,2.2-4.7,4.2-.7.5-2.1,1.5-3.6,2.5-.6.4-1.2.8-1.7,1.2,0-.1-.1-.1-.1-.2-3-4.1-8.5-7.1-8.2-12.6.1-2,.6-7.3,10.6-13.8,8.2-5.3,14.7-3.8,15.8-.6,1.6,4.6-3.5,13.2-12,14.4a5.63,5.63,0,0,1-5.4-1.8c-.4-.6-.5-.7-.7-.6s-.1.8,0,1.1a5.14,5.14,0,0,0,3.1,3.1c1.6.7,5.4,1,10-1.3,5.2-2.6,9.2-9.7,8-15.8s-9-8.1-16.4-4.7A36.21,36.21,0,0,0,5,410.3c-4.1,4.9-4.7,9.2-4.5,11,.9,6.4,7.7,10.5,10.4,13.6-.1.1-.3.2-.4.3-1.4.9-6.5,4.4-7.8,8.1-1.5,4.2.2,7.2,1.3,7.6,3.5,1.3,7.1-1,9-4.7a14.89,14.89,0,0,0,.8-10.8v-.1l1.1-.8c.7-.5,1.4-1,2-1.4a22.41,22.41,0,0,0-.7,4.6c-.2,2.4.6,5.5,1.6,6.7a1.55,1.55,0,0,0,1.3.5c1.2,0,1.7-1.2,2.2-2.7.7-1.8,1.3-3.9,1.3-3.9S21.8,444,24,444c.8,0,1.6-1.3,1.9-2h0l.1-.1a.77.77,0,0,0,.1-.3h0c.3-.7,1-2.3,2.1-5,1.4-3.4,2.7-7.7,2.7-7.7a27.41,27.41,0,0,0,.5,2.8,25.51,25.51,0,0,0,1.1,3.3,9.24,9.24,0,0,1-.5.9h0c-.3.4-.5.9-.8,1.4a29.75,29.75,0,0,0-2.5,4.1,1.34,1.34,0,0,0,.2,1.5,1.81,1.81,0,0,0,1.3.3,5.26,5.26,0,0,0,2-.6,9.91,9.91,0,0,0,1.7-1.1,5.44,5.44,0,0,0,1.6-4.3,11.34,11.34,0,0,0-.6-3.1,2.19,2.19,0,0,1,.3-.5,48.56,48.56,0,0,0,2.9-6.6,27.41,27.41,0,0,0,.5,2.8c.2.9.6,1.8.9,2.8a12,12,0,0,0-2.9,4.8c-.6,2.3-.1,3.3.8,3.6a1.9,1.9,0,0,0,1.4-.4,7.07,7.07,0,0,0,1.8-1.2,5.69,5.69,0,0,0,2-4.3,10.05,10.05,0,0,0-.4-2.5,8.32,8.32,0,0,1,5.2-.8c4.6.7,5.6,4.5,5.4,6.1a4.27,4.27,0,0,1-1.5,2.7c-.3.3-.4.4-.4.6s.2.3.5.2a4.55,4.55,0,0,0,2.5-4.2,7.33,7.33,0,0,0-7.4-7.8ZM10.6,445c-1.5,2.2-3.7,3-4.6,2.3s-.6-4,1.3-6.3a28.75,28.75,0,0,1,3.6-3.5c.2-.2.6-.4,1-.7l.1-.1c.1-.1.2-.1.2-.2a10.26,10.26,0,0,1-1.6,8.5Zm11.3-9.9c-.5,1.7-1.7,6-2.4,5.8s-.9-3.5-.1-6.7a16.29,16.29,0,0,1,1.8-4.3c.8-1.2,1.8-1.6,2-1.1S22.2,434.1,21.9,435.1Zm9.2,5.8a.65.65,0,0,1-.5.2c-.1-.1.1-.3.1-.3s1.2-1.6,1.6-2.3a9.88,9.88,0,0,0,.9-1.5v.2a4.79,4.79,0,0,1-2.1,3.7Zm7.2-2.1c-.2-.2-.1-.7.4-2.2a8.09,8.09,0,0,1,1.6-2.7,5,5,0,0,1,.2,1.2A3.93,3.93,0,0,1,38.3,438.8Z" transform="translate(0.1 0)"/><path class="cls-1" d="M601.1,451.5l-.1,60.3,53.4.1.1-60.3Zm29,47.1c0,5.9-3.1,8.5-7.5,8.5-4,0-6.3-2.4-7.5-5.2l4.1-2.8c.8,1.6,1.5,2.9,3.2,2.9s2.7-.7,2.7-3.6V479.1h5Zm11.8,8.5a9.34,9.34,0,0,1-9.1-5.8l4.1-2.7c1.1,2,2.5,3.5,4.9,3.5,2.1,0,3.4-1.2,3.4-2.8,0-1.9-1.4-2.6-3.7-3.8l-1.3-.6c-3.6-1.7-6-3.9-6-8.6,0-4.3,2.9-7.5,7.3-7.5,3.2,0,5.5,1.3,7.1,4.6l-3.9,2.8c-.9-1.7-1.8-2.4-3.2-2.4a2.26,2.26,0,0,0-2.4,2.4c0,1.7.9,2.4,3.1,3.5l1.3.6c4.3,2.1,6.7,4.2,6.6,8.9C650.2,504.4,646.7,507.1,641.9,507.1Z" transform="translate(0.1 0)"/><path class="cls-1" d="M72.1,548.2c0,.2-.2.4-.6.4s-.6-.1-.6-.4.2-.4.6-.4S72.1,547.9,72.1,548.2Zm-3.3-.5c-.1.2.1.5.5.5a.57.57,0,0,0,.7-.2c.1-.2-.1-.5-.5-.6S68.8,547.5,68.8,547.7Zm4.7-.2c-.3.1-.5.3-.5.5s.3.4.6.3.5-.3.5-.5S73.8,547.5,73.5,547.5Zm7.2-41.2c-14.9,0-26.4,11.3-26.4,26.2a27,27,0,0,0,18.2,25.7c1.4.2,1.9-.6,1.9-1.3v-6.6s-7.5,1.6-9.1-3.2c0,0-1.2-3.1-3-3.9,0,0-2.5-1.7.2-1.7a5.7,5.7,0,0,1,4.2,2.8c2.4,4.2,6.3,3,7.8,2.3a6.72,6.72,0,0,1,1.7-3.6c-6-.7-12.1-1.6-12.1-11.9a7.81,7.81,0,0,1,2.6-6.3,10,10,0,0,1,.3-7.3c2.3-.7,7.4,2.9,7.4,2.9a26.14,26.14,0,0,1,13.6,0s5.2-3.6,7.4-2.9a10.53,10.53,0,0,1,.3,7.3c1.7,1.9,2.8,3.4,2.8,6.3,0,10.4-6.4,11.2-12.4,11.9a6.47,6.47,0,0,1,1.8,5v9c0,.7.5,1.5,1.9,1.3a26.66,26.66,0,0,0,18.1-25.7C107.7,517.7,95.6,506.3,80.7,506.3Zm-16,37.1a.48.48,0,0,0,.1.6.47.47,0,0,0,.6.1.48.48,0,0,0-.1-.6C65.1,543.3,64.9,543.2,64.7,543.4Zm-1.2-.9c-.1.1,0,.3.2.4s.4.1.5-.1,0-.3-.2-.4A.75.75,0,0,0,63.5,542.5Zm3.5,3.8c-.2.1-.1.5.1.7s.6.3.7.1a.63.63,0,0,0-.1-.7A.62.62,0,0,0,67,546.3Zm-1.2-1.5c-.2.1-.2.4,0,.6s.5.4.6.2.2-.4,0-.7A.38.38,0,0,0,65.8,544.8Z" transform="translate(0.1 0)"/><path class="cls-1" d="M325.4,660.1c5.8.4,7,.3,7,1.4,0,2.3-7.8,2.3-7.8.2a2.72,2.72,0,0,1,.8-1.6Zm3.3-13.5c-3.9,0-4,5.2-.1,5.2a2.61,2.61,0,1,0,.1-5.2Zm38.1-15.9-.1,40.8a5.22,5.22,0,0,1-1.7,3.9,6,6,0,0,1-4,1.6l-42-.1a5.76,5.76,0,0,1-4-1.6,5.38,5.38,0,0,1-1.7-3.9l.1-40.8a5.22,5.22,0,0,1,1.7-3.9,6,6,0,0,1,4-1.6l42,.1a5.76,5.76,0,0,1,4,1.6,5.22,5.22,0,0,1,1.7,3.9Zm-27,8a2.47,2.47,0,0,0,2.7,2.7,2.5,2.5,0,0,0,2.8-2.7c0-1.7-1-2.6-2.8-2.6A2.4,2.4,0,0,0,339.8,638.7Zm-2.7,5.3h-5.9c-3-.8-9.7-.6-9.7,5.4a4.6,4.6,0,0,0,2.6,4.4c-1.9,1.7-2.8,2.4-2.8,3.6a1.87,1.87,0,0,0,1.3,1.9c-1.1,1-1.7,1.7-1.7,3,0,2.3,2.1,3.7,7.6,3.7,5.3,0,8.3-1.9,8.3-5.3,0-4.3-3.4-4.1-11.3-4.6l1-1.6c2,.6,8.8.7,8.9-4.9a4.87,4.87,0,0,0-1.1-3l2.8-.2Zm10.1,12.7-1.6-.2c-.5-.1-.5-.1-.5-.6V643.7h-6.3l-.3,2.4c1.9.6,2,.6,2,1.2V656c0,.7,0,.5-2,.8v2.3h8.6Zm12,1.2-.8-2.6c-4.9,1.8-4.5-1.4-4.5-1.9v-7h4.5v-2.9h-4.3c-.3,0-.2.3-.2-4.5H351c-.3,3.2-1.4,4.5-4.1,4.8v2.6c2.4,0,2.4-.1,2.4.3v7.7c0,3.3,1.4,4.7,5,4.8a13.16,13.16,0,0,0,4.9-1.3Z" transform="translate(0.1 0)"/><path class="cls-1" d="M352.7,418.2A20.42,20.42,0,0,1,356,417s-5.4.7-10.8,1a125.46,125.46,0,0,1-17.3.1c-8.4-.8,4.6-3,4.6-3a34.74,34.74,0,0,0-11.3,1.9C313.8,419.5,339.4,420.6,352.7,418.2Zm-12-3.2c-2.7-4.3-11.7-8,0-14.5,14.5-8.2,7.1-13.5,7.1-13.5,3,8.4-10.6,11-15.5,16.2-3.5,3.6,1.6,7.4,8.4,11.8Zm16-17.6s-24.6,4.4-12.8,14c3.5,2.8-.9,5.4-.9,5.4s8.8-3.2,4.8-7.3c-3.8-3.8-6.7-5.6,8.9-12.1Zm-.8,26.9-.3.3c18-3.4,11.4-11.9,2.8-9.7a2.28,2.28,0,0,0-1.2.6l1.5-.3c4.4-.6,10.7,4.2-2.8,9.1Zm6.6,6.2s2,1.2-2.2,2.1c-8.1,1.8-33.8,2.3-40.9.1-2.6-.8,2.2-1.9,3.8-2.1a22.46,22.46,0,0,1,2.5-.2c-2.9-1.4-18.4,2.8-7.9,4C346.4,437.7,370,432.9,362.5,430.5Zm-31.4-4c-11,2.2,6.7,6.7,20.8,2.4a27,27,0,0,1-4-1.4,58.1,58.1,0,0,1-14.9.5c-4.6-.4-1.9-1.5-1.9-1.5Zm25.3,9.6a151.46,151.46,0,0,1-32.8.4s1.7,1,10.2,1.3c12.9.6,32.8-.4,33.3-4.7,0,0-.9,1.7-10.7,3Zm-6.1-13.9a86.32,86.32,0,0,1-19.2.7c-4.7-.3-1.6-2-1.6-2-12.2,2.9,6.8,6.1,23.8,2.6A14.18,14.18,0,0,1,350.3,422.2Z" transform="translate(0.1 0)"/><path class="cls-1" d="M77.9,170.4c-.9-3.5-2.6-6.2-6.3-6.2H66.9v5.4a7.94,7.94,0,0,1-7.9,7.7H46.4a6.32,6.32,0,0,0-6.3,6.2v11.6c0,3.3,3,5.2,6.3,6.2a22.45,22.45,0,0,0,12.6,0c3.2-.9,6.3-2.7,6.3-6.2v-4.6H52.7V189h19c3.7,0,5-2.5,6.3-6.2s1.1-7.5-.1-12.4ZM59.7,193.6a2.3,2.3,0,1,1-2.4,2.3A2.35,2.35,0,0,1,59.7,193.6Zm-14-17.7H58.3a6.25,6.25,0,0,0,6.3-6.2V158.1c0-3.3-2.9-5.8-6.3-6.3a40.93,40.93,0,0,0-12.6,0c-5.3.9-6.3,2.8-6.3,6.3v4.6H52v1.5H34.6a7.78,7.78,0,0,0-7.9,6.2,21.8,21.8,0,0,0,0,12.4c.9,3.6,3,6.2,6.7,6.2h4.3v-5.6A8,8,0,0,1,45.7,175.9Zm-.8-16.2a2.3,2.3,0,1,1,2.4-2.3,2.42,2.42,0,0,1-2.4,2.3Z" transform="translate(0.1 0)"/><path class="cls-1" d="M203.6,606.7c-.6-.2-1.1-.4-1.7-.6.1-.4.2-.8.3-1.3,1.3-6.8.4-12.2-2.4-14s-7.2.1-11.7,4.4l-1.3,1.3-.9-.9c-4.7-4.6-9.4-6.5-12.3-4.7-2.7,1.7-3.5,6.9-2.4,13.3a12.86,12.86,0,0,0,.4,1.9,10.66,10.66,0,0,0-1.9.7c-5.5,2.1-9.5,5.4-9.5,8.9s4.2,7.1,10,9.3c.5.2.9.3,1.4.5a17.66,17.66,0,0,0-.4,2c-1.1,6.3-.2,11.3,2.5,13s7.5-.1,12.1-4.5l1.1-1.1a18.48,18.48,0,0,0,1.4,1.4c4.4,4.2,8.8,5.9,11.5,4.2s3.7-7.2,2.5-13.7l-.3-1.5,1-.3c6-2.2,10.3-5.7,10.3-9.3s-4.1-6.9-9.7-9ZM189.5,597c3.8-3.7,7.4-5.1,9.1-4.1s2.4,5.6,1.3,11.4c-.1.4-.1.8-.2,1.1a41,41,0,0,0-7-1.2,51.3,51.3,0,0,0-4.4-6l1.2-1.2Zm-11.9,24.5c.5,1,1.1,2,1.6,2.9-1.6-.2-3.2-.5-4.8-.8.5-1.6,1-3.3,1.7-5.1.5,1.1,1,2,1.5,3Zm-3.2-13.7a35.5,35.5,0,0,1,4.7-.9c-.5.9-1.1,1.9-1.6,2.9l-1.5,3C175.4,611.1,174.9,609.4,174.4,607.8Zm2.9,7.9c.7-1.6,1.4-3.1,2.2-4.6s1.6-3,2.5-4.4c1.6-.1,3.1-.2,4.8-.2s3.2.1,4.8.2c.9,1.4,1.7,2.9,2.5,4.4s1.5,3,2.3,4.6c-.7,1.6-1.4,3.1-2.2,4.6s-1.6,3-2.5,4.4c-1.5.1-3.1.2-4.8.2s-3.2-.1-4.7-.2c-.9-1.4-1.8-2.9-2.6-4.4S178,617.2,177.3,615.7Zm18.7,5.8,1.5-3c.7,1.6,1.2,3.3,1.8,5a38.56,38.56,0,0,1-4.9.9C194.9,623.4,195.5,622.5,196,621.5Zm1.5-8.7-1.5-3c-.5-1-1-1.9-1.6-2.9a34.08,34.08,0,0,1,4.8.9c-.5,1.7-1.1,3.4-1.7,5ZM186.8,600c1.1,1.3,2.1,2.7,3.1,4.1-2.1-.1-4.1-.1-6.2,0A33.81,33.81,0,0,1,186.8,600Zm-12-7c1.7-1.1,5.6.5,9.7,4.4a6,6,0,0,1,.8.8,51.3,51.3,0,0,0-4.4,6,42.72,42.72,0,0,0-7,1.2c-.1-.6-.3-1.2-.4-1.8-1-5.4-.4-9.6,1.3-10.6Zm-2.5,30c-.4-.1-.9-.3-1.3-.4a22.69,22.69,0,0,1-6.5-3.5,4.89,4.89,0,0,1-1.9-3.4c0-2.1,3.3-4.8,8-6.6l1.8-.6a76.11,76.11,0,0,0,2.5,7.2,48.85,48.85,0,0,0-2.6,7.3Zm12,11.2a18.85,18.85,0,0,1-5.8,4,4.35,4.35,0,0,1-3.7.2c-1.6-1-2.3-5.1-1.4-10.5a12.86,12.86,0,0,1,.4-1.9,56.53,56.53,0,0,0,7,1.1,68.54,68.54,0,0,0,4.5,6.1Zm2.6-2.8a44,44,0,0,1-3.1-4.1c1,0,2,.1,3.1.1s2.1,0,3.1-.1c-1,1.4-2,2.8-3.1,4.1Zm13.5,3.4a5.33,5.33,0,0,1-1.7,3.6c-1.6,1-5.2-.3-8.9-3.9l-1.3-1.3a67.59,67.59,0,0,0,4.4-6.1,43.89,43.89,0,0,0,7.1-1.2c.1.5.2.9.3,1.4a31.3,31.3,0,0,1,.1,7.5Zm1.9-12.2-.9.3a63.37,63.37,0,0,0-2.6-7.3,55.54,55.54,0,0,0,2.5-7.2,9.83,9.83,0,0,0,1.6.5c4.8,1.8,8.2,4.5,8.2,6.6C211,617.8,207.4,620.7,202.3,622.6Zm-15.5-1.7a5.23,5.23,0,1,0-4.7-5.2A4.95,4.95,0,0,0,186.8,620.9Z" transform="translate(0.1 0)"/><path class="cls-1" d="M21.6,305.2h9.7l-4.9-10.4Zm4.8-26.9L-.1,286.8,4,318.2l22.5,11.1,22.4-11.2,4-31.4Zm16.7,38.9H36.9l-3.3-7.4H19.5l-3.3,7.4H10l16.6-33.3Z" transform="translate(0.1 0)"/><path class="cls-1" d="M473.2,664.2a5.93,5.93,0,0,1-2.3-.5l-7.3-3.7c-1.1-.5-.6-.7-.2-.8a11.33,11.33,0,0,0,3.3-1.3.45.45,0,0,1,.5,0l5.6,2.8a.85.85,0,0,0,.7,0l21.9-10.8a.55.55,0,0,0,.3-.5V627.8a.55.55,0,0,0-.3-.5l-21.9-10.8a.85.85,0,0,0-.7,0l-21.9,10.8a.55.55,0,0,0-.3.5v21.6a.55.55,0,0,0,.3.5l6,2.9c3.3,1.4,5.3-.2,5.3-1.9V629.6a.56.56,0,0,1,.6-.5h2.8a.56.56,0,0,1,.6.5v21.3c0,3.7-2.4,5.8-6.5,5.8a10.07,10.07,0,0,1-5-1.2l-5.7-2.8a3.91,3.91,0,0,1-2.3-3.4V627.7a3.91,3.91,0,0,1,2.3-3.4l21.9-10.8a5.3,5.3,0,0,1,4.6,0l21.9,10.8a3.91,3.91,0,0,1,2.3,3.4v21.6a3.91,3.91,0,0,1-2.3,3.4l-21.9,10.8A3.89,3.89,0,0,1,473.2,664.2Zm17.7-21.3c0-4-3.2-5.1-9.9-5.9s-7.5-1.2-7.5-2.5c0-1.1.6-2.6,5.6-2.6,4.5,0,6.2.8,6.8,3.4a.68.68,0,0,0,.6.4h2.8c.2,0,.3-.1.5-.2a.76.76,0,0,0,.2-.4c-.4-4.5-3.9-6.5-10.9-6.5-6.3,0-10,2.3-10,6,0,4.1,3.7,5.2,9.7,5.7,7.2.6,7.7,1.5,7.7,2.7,0,2.1-2,3-6.6,3-5.8,0-7.1-1.2-7.5-3.7a.56.56,0,0,0-.6-.5H469c-.4,0-.6.2-.6.5,0,3.1,2,6.9,11.6,6.9,6.9.1,10.9-2.2,10.9-6.3Z" transform="translate(0.1 0)"/><path class="cls-1" d="M342.9,280.1h-3.3v-8.6h3.3Zm30-17.1v25.7h-30V293H329.6v-4.3H312.9V263Zm-43.3,4.3H316.3v17.1H323V271.5h3.3v12.9h3.3Zm16.7,0H333v21.4h6.7v-4.3h6.7Zm23.3,0h-20v17.1h6.7V271.5h3.3v12.9h3.3V271.5h3.3v12.9h3.3Z" transform="translate(0.1 0)"/><path class="cls-1" d="M601.6,612.8H561a11.35,11.35,0,0,1-11.3-11.3V567.4A11.35,11.35,0,0,1,561,556.1h40.6a11.35,11.35,0,0,1,11.3,11.3v34.1A11.35,11.35,0,0,1,601.6,612.8Z" transform="translate(0.1 0)"/><text class="cls-2" transform="translate(557.61 598.97)">Ps</text><path class="cls-3" d="M656.4,379.1h-47a7.64,7.64,0,0,1-7.7-7.7V328a7.64,7.64,0,0,1,7.7-7.7h47a7.64,7.64,0,0,1,7.7,7.7v43.4A7.7,7.7,0,0,1,656.4,379.1Z" transform="translate(0.1 0)"/><text class="cls-4" transform="translate(615.16 364.09)">AI</text><path class="cls-1" d="M185,117.6H140a10.18,10.18,0,0,1-10.2-10.2V62.3A10.18,10.18,0,0,1,140,52.1h45a10.18,10.18,0,0,1,10.2,10.2v45.1A10.12,10.12,0,0,1,185,117.6Z" transform="translate(0.1 0)"/><text class="cls-5" transform="translate(138.26 97.23) scale(1.17 1)">AE</text></svg>